<svg xmlns="http://www.w3.org/2000/svg" viewBox="0 0 640 400" preserveAspectRatio="xMidYMid slice">
  <rect width="640" height="400" fill="#141414"/>
  <rect x="70" y="36" width="500" height="78" rx="4" fill="#f5f2eb" stroke="#171a1d" stroke-width="8"/>
  <text x="320" y="84" text-anchor="middle" font-family="Arial, sans-serif" font-size="28" font-weight="800" fill="#c52222">MOBILE GALAXY F-69</text>
  <rect x="90" y="130" width="46" height="210" fill="#c4a06a"/>
  <rect x="504" y="130" width="46" height="210" fill="#c4a06a"/>
  <rect x="136" y="300" width="368" height="18" fill="#c7ccce"/>
  <rect x="150" y="168" width="340" height="132" fill="#d7f4ff" opacity=".35"/>
  <rect x="150" y="248" width="340" height="52" fill="#f5f2ed"/>
  <rect x="150" y="292" width="340" height="8" fill="#a90f18"/>
  <rect x="118" y="140" width="404" height="16" fill="#c62828"/>
  <rect x="118" y="156" width="404" height="16" fill="#f4f4f4"/>
  <rect x="200" y="210" width="36" height="64" rx="4" fill="#c62828"/>
  <rect x="248" y="210" width="36" height="64" rx="4" fill="#43a047"/>
  <rect x="296" y="210" width="36" height="64" rx="4" fill="#f6c90e"/>
  <rect x="344" y="210" width="36" height="64" rx="4" fill="#7e57c2"/>
  <rect x="392" y="210" width="36" height="64" rx="4" fill="#eeeeee"/>
</svg>
